<svg xmlns="http://www.w3.org/2000/svg"
 xmlns:xlink="http://www.w3.org/1999/xlink"
 width="35px" height="51px"  viewBox="0 0 35 51">
<path fill-rule="evenodd"  fill="#ffffff"
 d="M19.324463,1.9952393 C19.324463,1.9952393 16.67041,1.9952393 16.67041,1.9952393 C8.417297,2.612732 1.9984131,9.062866 1.9984131,16.812378 C1.9984131,16.812378 1.9984131,35.06549 1.9984131,35.06549 C1.9984131,43.298035 9.175537,49.996704 17.997437,49.996704 C26.821106,49.996704 33.99884,43.298035 33.99884,35.06549 C33.99884,35.06549 33.99884,16.811096 33.99884,16.811096 C33.99762,9.067627 27.5802,2.6174927 19.324463,1.9952393 ZM30.999329,34.868347 C30.999329,41.5531 25.166016,46.987366 17.99646,46.987366 C10.828186,46.987366 4.9957886,41.5531 4.9957886,34.868347 C4.9957886,34.868347 4.9957886,17.103333 4.9957886,17.103333 C4.9957886,10.420471 10.828186,4.9849854 17.99646,4.9849854 C25.166016,4.9849854 30.999329,10.420471 30.999329,17.103333 C30.999329,17.103333 30.999329,34.868347 30.999329,34.868347 ZM17.997437,15.003967 C16.89563,15.003967 16.002075,15.883911 16.002075,16.97113 C16.002075,16.97113 16.002075,22.036804 16.002075,22.036804 C16.002075,23.121765 16.89563,24.003296 17.997437,24.003296 C19.099487,24.003296 19.99353,23.121765 19.99353,22.036804 C19.99353,22.036804 19.99353,16.97113 19.99353,16.97113 C19.99353,15.884216 19.100464,15.003967 17.997437,15.003967 Z"/>
</svg>