<svg xmlns="http://www.w3.org/2000/svg"
 xmlns:xlink="http://www.w3.org/1999/xlink"
 width="21px" height="21px"  viewBox="0 0 21 21">
<path fill-rule="evenodd"  fill="#ffffff"
 d="M8.998901,1.9937744 C12.864624,1.9937744 15.998413,5.1277313 15.998413,8.993271 C15.998413,12.859764 12.864624,15.993721 8.998901,15.993721 C5.1324463,15.993721 1.9987793,12.859764 1.9987793,8.993271 C1.9987793,5.1277313 5.1324463,1.9937744 8.998901,1.9937744 ZM8.998901,4.9936523 C11.207764,4.9936523 12.999268,6.7852097 12.999268,8.993271 C12.999268,11.202919 11.207764,12.99353 8.998901,12.99353 C6.789917,12.99353 4.998413,11.202919 4.998413,8.993271 C4.998413,6.7852097 6.789917,4.9936523 8.998901,4.9936523 ZM9.998413,12.995743 C9.998413,12.995743 11.998535,11.996315 11.998535,11.996315 C11.998535,11.996315 11.998535,10.9953 11.998535,10.9953 C11.998535,10.9953 19.998413,17.995117 19.998413,17.995117 C19.998413,17.995117 19.998413,17.995117 19.998413,17.995117 C19.998413,17.995117 17.998657,19.994606 17.998657,19.994606 C17.998657,19.994606 9.998413,12.995743 9.998413,12.995743 Z"/>
</svg>